<svg id="Capa_1" data-name="Capa 1" xmlns="http://www.w3.org/2000/svg" viewBox="0 0 117.14 116.85"><defs><style>.cls-1{fill:#757575;}.cls-2{fill:#9ab3cc;}</style></defs><title>edit</title><path class="cls-1" d="M48.57,116.74c-11.35,0-22.72-.28-34.06.1-6.66.23-14.68-5.71-14.65-14.66.06-15.31,0-30.63,0-46,0-7.24,0-14.48,0-21.71,0-8.83,6.3-15.2,15.09-15.23,12.57-.06,25.14,0,37.72,0,3.32,0,5.43,1.65,5.76,4.36a4.78,4.78,0,0,1-3.69,5.3,16.89,16.89,0,0,1-3.63.28c-11.66,0-23.32,0-35,0-4.91,0-6.44,1.52-6.44,6.43q0,32.46,0,64.92c0,4.9,1.59,6.47,6.41,6.48H81.28c4.84,0,6.39-1.59,6.39-6.48,0-12,0-24.08,0-36.12a8.5,8.5,0,0,1,.77-3.72,4.36,4.36,0,0,1,5-2.27,4.52,4.52,0,0,1,3.83,3.74,10.84,10.84,0,0,1,.15,2.28c0,12.42,0,24.84,0,37.26,0,5.84-2.37,10.4-7.47,13.21a14.41,14.41,0,0,1-6.49,1.69C71.89,116.82,60.23,116.74,48.57,116.74Z" transform="translate(0.14 0)"/><path class="cls-2" d="M44.45,75.1c-2,0-3.08-1-2.74-2.89,1-5.61,2.16-11.21,3.4-16.78a6.07,6.07,0,0,1,1.75-2.6C58.68,41,70.55,29.15,82.35,17.27c1.36-1.37,2.25-1.58,3.69-.08q6.74,7,13.73,13.72c1.41,1.37,1.19,2.21-.1,3.49C87.79,46.21,76,58.08,64.09,69.88a7.22,7.22,0,0,1-3.21,2C55.84,73,50.75,74,45.67,75A11.11,11.11,0,0,1,44.45,75.1Z" transform="translate(0.14 0)"/><path class="cls-2" d="M104.83,0c4.92.11,8.64,2.3,10.81,6.73a11.25,11.25,0,0,1-1.3,12.66c-1.94,2.43-4.32,4.5-6.48,6.76-.91,1-1.67.71-2.5-.13Q98.1,18.73,90.82,11.49c-.84-.83-1.13-1.56-.16-2.5,2.2-2.1,4.29-4.33,6.56-6.35A10.9,10.9,0,0,1,104.83,0Z" transform="translate(0.14 0)"/></svg>